<svg width="17" height="18" viewBox="0 0 17 18" fill="none" xmlns="http://www.w3.org/2000/svg">
<path fill-rule="evenodd" clip-rule="evenodd" d="M13.1042 8.27531C9.89595 8.27531 9.20833 7.58769 9.20833 4.37948C9.20833 1.17126 9.89595 0.483643 13.1042 0.483643C16.3124 0.483643 17 1.17126 17 4.37948C17 7.58769 16.3124 8.27531 13.1042 8.27531ZM11.4493 6.73482C11.8126 6.81555 12.3344 6.85864 13.1042 6.85864C13.8739 6.85864 14.3957 6.81555 14.759 6.73482C15.1062 6.65766 15.216 6.56616 15.2534 6.52874C15.2909 6.49132 15.3823 6.38151 15.4595 6.03432C15.5402 5.67105 15.5833 5.1492 15.5833 4.37948C15.5833 3.60976 15.5402 3.0879 15.4595 2.72463C15.3823 2.37744 15.2909 2.26763 15.2534 2.23021C15.216 2.19279 15.1062 2.1013 14.759 2.02414C14.3957 1.9434 13.8739 1.90031 13.1042 1.90031C12.3344 1.90031 11.8126 1.9434 11.4493 2.02414C11.1021 2.1013 10.9923 2.19279 10.9549 2.23021C10.9175 2.26763 10.826 2.37744 10.7488 2.72463C10.6681 3.0879 10.625 3.60976 10.625 4.37948C10.625 5.1492 10.6681 5.67105 10.7488 6.03432C10.826 6.38151 10.9175 6.49132 10.9549 6.52874C10.9923 6.56616 11.1021 6.65766 11.4493 6.73482Z" fill="#C1630C"/>
<path fill-rule="evenodd" clip-rule="evenodd" d="M3.89583 17.4836C0.687614 17.4836 0 16.796 0 13.5878C0 10.3796 0.687614 9.69198 3.89583 9.69198C7.10405 9.69198 7.79167 10.3796 7.79167 13.5878C7.79167 16.796 7.10405 17.4836 3.89583 17.4836ZM1.54049 15.2427C1.45976 14.8794 1.41667 14.3575 1.41667 13.5878C1.41667 12.8181 1.45976 12.2962 1.54049 11.933C1.61765 11.5858 1.70915 11.476 1.74657 11.4385C1.78399 11.4011 1.8938 11.3096 2.24099 11.2325C2.60426 11.1517 3.12611 11.1086 3.89583 11.1086C4.66555 11.1086 5.1874 11.1517 5.55068 11.2325C5.89787 11.3096 6.00768 11.4011 6.0451 11.4385C6.08252 11.476 6.17401 11.5858 6.25117 11.933C6.33191 12.2962 6.375 12.8181 6.375 13.5878C6.375 14.3575 6.33191 14.8794 6.25117 15.2427C6.17401 15.5898 6.08252 15.6997 6.0451 15.7371C6.00768 15.7745 5.89787 15.866 5.55068 15.9431C5.1874 16.0239 4.66555 16.067 3.89583 16.067C3.12611 16.067 2.60426 16.0239 2.24099 15.9431C1.8938 15.866 1.78399 15.7745 1.74657 15.7371C1.70915 15.6997 1.61765 15.5898 1.54049 15.2427Z" fill="#C1630C"/>
<path fill-rule="evenodd" clip-rule="evenodd" d="M0 4.37948C0 7.58769 0.687614 8.27531 3.89583 8.27531C7.10405 8.27531 7.79167 7.58769 7.79167 4.37948C7.79167 1.17126 7.10405 0.483643 3.89583 0.483643C0.687614 0.483643 0 1.17126 0 4.37948ZM1.41667 4.37948C1.41667 5.1492 1.45976 5.67105 1.54049 6.03432C1.61765 6.38151 1.70915 6.49132 1.74657 6.52874C1.78399 6.56616 1.8938 6.65766 2.24099 6.73482C2.60426 6.81555 3.12611 6.85864 3.89583 6.85864C4.66555 6.85864 5.1874 6.81555 5.55068 6.73482C5.89787 6.65766 6.00768 6.56616 6.0451 6.52874C6.08252 6.49132 6.17401 6.38151 6.25117 6.03432C6.33191 5.67105 6.375 5.1492 6.375 4.37948C6.375 3.60976 6.33191 3.0879 6.25117 2.72463C6.17401 2.37744 6.08252 2.26763 6.0451 2.23021C6.00768 2.19279 5.89787 2.1013 5.55068 2.02414C5.1874 1.9434 4.66555 1.90031 3.89583 1.90031C3.12611 1.90031 2.60426 1.9434 2.24099 2.02414C1.8938 2.1013 1.78399 2.19279 1.74657 2.23021C1.70915 2.26763 1.61765 2.37744 1.54049 2.72463C1.45976 3.0879 1.41667 3.60976 1.41667 4.37948Z" fill="#C1630C"/>
<path fill-rule="evenodd" clip-rule="evenodd" d="M9.20833 13.5878C9.20833 16.796 9.89595 17.4836 13.1042 17.4836C16.3124 17.4836 17 16.796 17 13.5878C17 10.3796 16.3124 9.69198 13.1042 9.69198C9.89595 9.69198 9.20833 10.3796 9.20833 13.5878ZM10.625 13.5878C10.625 14.3575 10.6681 14.8794 10.7488 15.2427C10.826 15.5898 10.9175 15.6997 10.9549 15.7371C10.9923 15.7745 11.1021 15.866 11.4493 15.9431C11.8126 16.0239 12.3344 16.067 13.1042 16.067C13.8739 16.067 14.3957 16.0239 14.759 15.9431C15.1062 15.866 15.216 15.7745 15.2534 15.7371C15.2909 15.6997 15.3823 15.5898 15.4595 15.2427C15.5402 14.8794 15.5833 14.3575 15.5833 13.5878C15.5833 12.8181 15.5402 12.2962 15.4595 11.933C15.3823 11.5858 15.2909 11.476 15.2534 11.4385C15.216 11.4011 15.1062 11.3096 14.759 11.2325C14.3957 11.1517 13.8739 11.1086 13.1042 11.1086C12.3344 11.1086 11.8126 11.1517 11.4493 11.2325C11.1021 11.3096 10.9923 11.4011 10.9549 11.4385C10.9175 11.476 10.826 11.5858 10.7488 11.933C10.6681 12.2962 10.625 12.8181 10.625 13.5878Z" fill="#C1630C"/>
</svg>
