<svg width="38" height="39" viewBox="0 0 38 39" fill="none" xmlns="http://www.w3.org/2000/svg">
<mask id="mask0_4_108" style="mask-type:alpha" maskUnits="userSpaceOnUse" x="0" y="0" width="38" height="39">
<rect y="0.5" width="38" height="38" fill="#D9D9D9"/>
</mask>
<g mask="url(#mask0_4_108)">
<path d="M17.8125 35.3334C16.9417 35.3334 16.0642 35.2344 15.1802 35.0365C14.2962 34.8386 13.3924 34.5549 12.4688 34.1855C12.7854 30.9924 13.709 28.0105 15.2396 25.2396C16.7701 22.4688 18.7361 20.0278 21.1375 17.9167C18.2347 19.3945 15.7212 21.3473 13.5969 23.775C11.4726 26.2028 9.98819 28.9736 9.14375 32.0875C9.0382 32.0084 8.93924 31.9226 8.84688 31.8302L8.55 31.5334C7.30972 30.2931 6.36632 28.9077 5.71979 27.3771C5.07326 25.8466 4.75 24.25 4.75 22.5875C4.75 20.7931 5.10625 19.0778 5.81875 17.4417C6.53125 15.8056 7.52083 14.3542 8.7875 13.0875C10.925 10.95 13.6958 9.55802 17.1 8.91149C20.5042 8.26497 25.2806 8.20559 31.4292 8.73337C31.9042 15.0403 31.825 19.8497 31.1917 23.1615C30.5583 26.4733 29.1861 29.1848 27.075 31.2959C25.7819 32.5889 24.3372 33.5851 22.7406 34.2844C21.1441 34.9837 19.5014 35.3334 17.8125 35.3334Z" fill="#C1630C"/>
</g>
</svg>
